<svg width="174" height="152" viewBox="0 0 174 152" fill="none" xmlns="http://www.w3.org/2000/svg">
<path id="Vector" d="M81.6078 4.05646L81.6074 4.05714L1.88178 141.728C1.88174 141.728 1.88169 141.728 1.88164 141.728C1.26142 142.762 0.95 143.798 0.95 144.836C0.95 145.874 1.26147 146.91 1.88178 147.944C3.12337 150.013 4.92018 151.05 7.26712 151.05H166.719C169.066 151.05 170.863 150.013 172.105 147.944C172.725 146.91 173.036 145.874 173.036 144.836C173.036 143.798 172.725 142.762 172.105 141.728C172.105 141.728 172.105 141.728 172.105 141.728L92.3789 4.05713L92.3785 4.05647C91.1369 1.98715 89.3401 0.95 86.9931 0.95C84.6462 0.95 82.8494 1.98715 81.6078 4.05646ZM87.8151 58.0733C86.0222 58.0733 84.5365 58.6599 83.3619 59.8345C82.1873 61.0091 81.6007 62.4948 81.6007 64.2877V97.9863C81.6007 99.7792 82.1873 101.265 83.3619 102.439C84.5365 103.614 86.0222 104.201 87.8151 104.201C89.608 104.201 91.0937 103.614 92.2682 102.439C93.4428 101.265 94.0295 99.7792 94.0295 97.9863V64.2877C94.0295 62.4948 93.4428 61.0091 92.2682 59.8345C91.0937 58.6599 89.608 58.0733 87.8151 58.0733ZM87.8151 127.009C89.608 127.009 91.0937 126.422 92.2682 125.248C93.4428 124.073 94.0295 122.587 94.0295 120.795C94.0295 119.002 93.4428 117.516 92.2682 116.341C91.0937 115.167 89.608 114.58 87.8151 114.58C86.0222 114.58 84.5365 115.167 83.3619 116.341C82.1873 117.516 81.6007 119.002 81.6007 120.795C81.6007 122.587 82.1873 124.073 83.3619 125.248C84.5365 126.422 86.0222 127.009 87.8151 127.009ZM86.9931 19.5929L155.947 138.621H18.0388L86.9931 19.5929Z" fill="#00704B" stroke="#00704B" stroke-width="0.1"/>
</svg>
